HIERARCHY
ROOT Hips
{
	OFFSET 0.000000 8.830580 0.000000
	CHANNELS 6 Xposition Yposition Zposition Zrotation Yrotation Xrotation 
	JOINT Spine
	{
		OFFSET 0.000000 0.010000 0.000000
		CHANNELS 3 Zrotation Yrotation Xrotation
		JOINT Spine1
		{
			OFFSET 0.000000 2.459130 0.000000
			CHANNELS 3 Zrotation Yrotation Xrotation
			JOINT Neck
			{
				OFFSET 0.000000 2.484630 0.000000
				CHANNELS 3 Zrotation Yrotation Xrotation
				JOINT Head_virtual
				{
					OFFSET 0.000000 0.000000 0.000000
					CHANNELS 3 Zrotation Yrotation Xrotation
					JOINT Head
					{
						OFFSET 0.000000 0.927525 0.000000
						CHANNELS 3 Zrotation Yrotation Xrotation
						End Site
						{
							OFFSET 0.000000 0.000000 0.000000
						}
					}
				}
				JOINT LeftUpArm_virtual
				{
					OFFSET 0.000000 0.000000 0.000000
					CHANNELS 3 Zrotation Yrotation Xrotation
					JOINT LeftUpArm
					{
						OFFSET 1.248820 0.000000 0.000000
						CHANNELS 3 Zrotation Yrotation Xrotation
						JOINT LeftForeArm
						{
							OFFSET 2.597580 0.000000 0.000000
							CHANNELS 3 Zrotation Yrotation Xrotation
							JOINT LeftHand
							{
								OFFSET 2.455420 0.000000 0.000000
								CHANNELS 3 Zrotation Yrotation Xrotation
								End Site
								{
									OFFSET 0.000000 0.000000 0.000000
								}
							}
						}
					}
				}
				JOINT RightUpArm_virtual
				{
					OFFSET -0.000000 -0.000000 -0.000000
					CHANNELS 3 Zrotation Yrotation Xrotation
					JOINT RightUpArm
					{
						OFFSET -1.248820 -0.000000 -0.000000
						CHANNELS 3 Zrotation Yrotation Xrotation
						JOINT RightForeArm
						{
							OFFSET -2.597580 -0.000000 -0.000000
							CHANNELS 3 Zrotation Yrotation Xrotation
							JOINT RightHand
							{
								OFFSET -2.455420 -0.000000 -0.000000
								CHANNELS 3 Zrotation Yrotation Xrotation
								End Site
								{
									OFFSET 0.000000 0.000000 0.000000
								}
							}
						}
					}
				}
			}
		}
	}
	JOINT LeftUpLeg
	{
		OFFSET 1.271939 0.000000 0.000000
		CHANNELS 3 Zrotation Yrotation Xrotation
		JOINT LeftLowLeg
		{
			OFFSET 0.000000 -4.342910 0.000000
			CHANNELS 3 Zrotation Yrotation Xrotation
			JOINT LeftFoot
			{
				OFFSET 0.000000 -4.487670 0.000000
				CHANNELS 3 Zrotation Yrotation Xrotation
				JOINT LeftToeBase
				{
					OFFSET 0.000000 0.000000 1.515070
					CHANNELS 3 Zrotation Yrotation Xrotation
					End Site
					{
						OFFSET 0.000000 0.000000 0.000000
					}
				}
			}
		}
	}
	JOINT RightUpLeg
	{
		OFFSET -1.271939 0.000000 0.000000
		CHANNELS 3 Zrotation Yrotation Xrotation
		JOINT RightLowLeg
		{
			OFFSET 0.000000 -4.342910 0.000000
			CHANNELS 3 Zrotation Yrotation Xrotation
			JOINT RightFoot
			{
				OFFSET 0.000000 -4.487670 0.000000
				CHANNELS 3 Zrotation Yrotation Xrotation
				JOINT RightToeBase
				{
					OFFSET 0.000000 0.000000 1.515070
					CHANNELS 3 Zrotation Yrotation Xrotation
					End Site
					{
						OFFSET 0.000000 0.000000 0.000000
					}
				}
			}
		}
	}
}
MOTION
Frames: 7
Frame Time: 0.041667
-21.960342 9.263039 56.890246 9.134730 70.163328 16.936678 7.653453 -15.071915 2.112687 43.720831 0.509453 30.370228 0.000000 0.000000 0.000000 -40.162616 22.845805 5.262099 0.411882 -16.620817 -69.389670 -52.695702 1.299260 37.709999 -18.975599 -10.886600 3.530710 0.000000 -42.681599 0.000000 5.100700 5.572030 -9.806120 8.299440 2.291190 -1.222990 20.862600 9.769500 -19.722601 0.000000 25.725401 0.000000 -8.924860 1.212860 -34.686798 2.732654 -2.950797 -11.090390 0.000000 0.000000 23.905001 -2.300069 -16.681163 13.409804 0.000000 0.000000 -24.988960 -5.982226 12.742990 -19.180583 0.000000 0.000000 27.336500 21.478238 -22.423298 3.036693 0.000000 0.000000 -11.689760 
-21.967931 9.281181 56.956511 12.422828 71.947310 19.754678 8.190859 -15.188452 2.374436 43.403251 1.214867 29.656833 0.000000 0.000000 0.000000 -41.731492 23.994620 6.182062 -1.248225 -16.001797 -69.130022 -53.632500 2.091210 39.381699 -16.986300 -11.613000 2.054730 0.000000 -43.780499 0.000000 4.425280 5.499980 -10.480900 8.253260 1.992760 -1.698740 20.830799 8.913790 -19.115101 0.000000 26.154600 0.000000 -9.172910 1.248880 -34.197201 2.584846 -2.069044 -11.552736 0.000000 0.000000 24.263100 -4.744928 -18.376244 15.607663 0.000000 0.000000 -25.523700 -5.778351 10.202009 -18.241409 0.000000 0.000000 27.268400 21.059156 -22.158477 2.840869 0.000000 0.000000 -11.707360 
-21.977470 9.301675 57.015179 16.443941 73.935441 23.201271 8.591203 -15.382766 2.654045 43.421063 1.952247 28.956199 0.000000 0.000000 0.000000 -42.592722 24.522071 6.770808 -2.706391 -15.570924 -68.415944 -53.131699 1.587160 38.060299 -18.528999 -11.361200 2.711560 0.000000 -44.753101 0.000000 4.160060 5.185420 -9.466010 7.953870 1.608110 -1.369710 20.717199 8.129110 -19.306801 0.000000 26.485500 0.000000 -9.366050 1.659900 -34.544800 2.364926 -1.585068 -12.125711 0.000000 0.000000 24.887899 -8.744417 -18.945158 17.912693 0.000000 0.000000 -24.643430 -5.571672 7.443542 -17.064352 0.000000 0.000000 26.938499 20.723490 -21.908652 2.718782 0.000000 0.000000 -11.667720 
-21.983397 9.322681 57.080509 21.461400 75.808670 27.656315 8.945367 -15.273913 2.465250 43.471053 2.352092 28.832971 0.000000 0.000000 0.000000 -43.149566 24.670119 6.910643 -3.641864 -15.679403 -67.818224 -53.234200 1.539680 37.758598 -18.554899 -11.576200 2.526670 0.000000 -46.341900 0.000000 4.701780 5.331490 -8.961340 7.715300 1.198990 -1.402310 20.630800 7.007420 -19.628599 0.000000 27.181700 0.000000 -9.564240 1.834270 -35.083401 2.086206 -1.150672 -12.523566 0.000000 0.000000 25.272900 -14.042708 -18.699315 20.486582 0.000000 0.000000 -24.170070 -5.414242 5.004164 -15.886344 0.000000 0.000000 26.555099 20.473823 -21.927743 2.561954 0.000000 0.000000 -11.685430 
-21.991978 9.333479 57.140451 27.965288 77.693695 33.769100 8.740072 -13.635524 0.698681 42.668750 1.200072 31.086377 0.000000 0.000000 0.000000 -41.611978 24.441485 1.041700 -7.122242 -16.553296 -65.152180 -42.036701 1.727330 -6.954110 -36.934601 3.259660 39.444401 0.000000 -43.594799 0.000000 6.811630 3.500010 -4.133980 7.977050 0.168738 -3.707610 20.610600 6.680180 -18.773001 0.000000 26.594601 0.000000 -8.737310 2.648670 -37.729401 1.751874 -0.481618 -13.281478 0.000000 0.000000 26.063000 -17.775278 -18.333524 22.044793 0.000000 0.000000 -23.768290 -5.297106 2.629017 -15.061127 0.000000 0.000000 26.521500 20.448069 -21.997144 2.175865 0.000000 0.000000 -11.842960 
-21.999160 9.357061 57.197999 36.954000 79.470712 42.465879 9.147598 -13.930005 0.583781 42.916304 2.106415 30.230558 0.000000 0.000000 0.000000 -41.407790 23.976119 2.677887 -7.051466 -16.270201 -65.858862 -42.559200 1.826230 -7.401450 -36.536900 3.777950 40.344200 0.000000 -45.293900 0.000000 8.074820 3.599300 -5.836160 7.667500 -0.053638 -3.899530 20.816099 4.737180 -19.056601 0.000000 27.403400 0.000000 -9.021180 2.575950 -37.964199 1.367609 -0.147454 -14.045647 0.000000 0.000000 26.570400 -19.894990 -17.420134 23.448169 0.000000 0.000000 -23.338910 -5.248810 0.524495 -14.259010 0.000000 0.000000 26.305201 20.384615 -22.420673 2.104008 0.000000 0.000000 -11.915810 
-22.002380 9.381295 57.253117 48.926805 81.001280 53.891204 9.463441 -14.297997 0.758926 43.205151 3.013080 29.287818 0.000000 0.000000 0.000000 -40.852254 23.039973 4.504710 -7.362183 -16.018063 -66.579054 -42.985699 1.949790 -7.149100 -36.411999 4.230850 40.165798 0.000000 -46.935200 0.000000 8.735440 2.388320 -5.573470 7.582360 -0.207595 -3.487840 20.673800 2.857360 -19.677000 0.000000 28.149401 0.000000 -9.426480 2.683020 -38.709801 0.887628 0.224055 -14.459313 0.000000 0.000000 26.936899 -18.663898 -16.093968 23.686461 0.000000 0.000000 -26.352200 -5.185096 -0.943774 -13.133513 0.000000 0.000000 26.011000 20.711237 -23.229438 1.852743 0.000000 0.000000 -11.897350 
